<?xml version="1.0" standalone="no"?>
<!DOCTYPE svg PUBLIC "-//W3C//DTD SVG 20010904//EN"
 "http://www.w3.org/TR/2001/REC-SVG-20010904/DTD/svg10.dtd">
<svg version="1.0" xmlns="http://www.w3.org/2000/svg"
 width="711.000000pt" height="711.000000pt" viewBox="0 0 711.000000 711.000000"
 preserveAspectRatio="xMidYMid meet">
<metadata>
Created by potrace 1.14, written by Peter Selinger 2001-2017
</metadata>
<g transform="translate(0.000000,711.000000) scale(0.100000,-0.100000)"
fill="#000000" stroke="none">
<path d="M2510 6065 l0 -1045 1045 0 1045 0 0 1045 0 1045 -1045 0 -1045 0 0
-1045z"/>
<path d="M0 3555 l0 -1045 1045 0 1045 0 0 1045 0 1045 -1045 0 -1045 0 0
-1045z"/>
<path d="M2510 3555 l0 -1045 1045 0 1045 0 0 1045 0 1045 -1045 0 -1045 0 0
-1045z"/>
<path d="M5020 4460 c0 -77 0 -502 0 -945 0 -443 0 -850 0 -905 l0 -100 1045
0 1045 0 0 1045 0 1045 -1045 0 -1045 0 0 -140z"/>
<path d="M2713 2092 l-203 -2 0 -1045 0 -1045 1045 0 1045 0 0 1045 0 1045
-77 0 c-1315 4 -1642 5 -1810 2z"/>
</g>
</svg>
